<?xml version="1.0" encoding="utf-8"?>
<!-- Generator: Adobe Illustrator 16.0.0, SVG Export Plug-In . SVG Version: 6.00 Build 0)  -->
<!DOCTYPE svg PUBLIC "-//W3C//DTD SVG 1.1//EN" "http://www.w3.org/Graphics/SVG/1.1/DTD/svg11.dtd">
<svg version="1.1" xmlns="http://www.w3.org/2000/svg" xmlns:xlink="http://www.w3.org/1999/xlink" x="0px" y="0px"
	 width="33.268px" height="20.857px" viewBox="0 0 33.268 20.857" enable-background="new 0 0 33.268 20.857" xml:space="preserve">
<g id="Capa_1">
	<g>
		<g>
			<g>
				<g>
					<g>
						<rect fill="#43AF50" width="33.269" height="20.857"/>
					</g>
				</g>
			</g>
		</g>
		<g>
			<polygon fill="#FFF915" points="3.684,10.504 16.562,2.363 29.608,10.368 16.731,18.476 			"/>
		</g>
		<g>
			<path fill="#39ACC6" d="M22.147,10.378c0,0.389-0.039,0.769-0.117,1.132c-0.086,0.429-0.225,0.838-0.404,1.222
				c-0.889,1.896-2.813,3.213-5.049,3.213c-3.075,0-5.569-2.494-5.569-5.568c0-0.543,0.078-1.067,0.225-1.561
				c0.119-0.417,0.287-0.814,0.494-1.186c0.963-1.688,2.771-2.824,4.851-2.824C19.655,4.807,22.147,7.3,22.147,10.378z"/>
		</g>
		<g>
			<path fill="#FFFFFF" d="M22.03,11.51c-0.086,0.429-0.225,0.838-0.404,1.222c-0.008-0.004-0.012-0.012-0.021-0.021
				c-1.178-1.431-2.971-2.571-5.076-3.278c-1.944-0.654-4.866-0.625-5.296-0.617c0.119-0.417,0.287-0.814,0.494-1.186
				c0,0,1.875-0.208,5.073,0.625C19.96,9.08,21.72,11.113,22.03,11.51z"/>
		</g>
		<g>
			<g>
				<path fill="#43AF50" d="M12.145,7.938c-0.197,0.004-0.338,0.16-0.33,0.392c0.004,0.226,0.146,0.368,0.338,0.364
					c0.188-0.003,0.336-0.143,0.332-0.396C12.475,8.081,12.34,7.933,12.145,7.938z M12.156,8.616
					c-0.15,0.004-0.236-0.135-0.24-0.291c-0.008-0.159,0.068-0.307,0.225-0.311c0.16-0.004,0.236,0.147,0.24,0.291
					C12.385,8.473,12.305,8.612,12.156,8.616z"/>
			</g>
			<g>
				<path fill="#43AF50" d="M13.031,8.477c-0.016-0.078-0.049-0.126-0.105-0.147V8.326c0.076-0.024,0.139-0.089,0.139-0.188
					c0-0.053-0.02-0.106-0.059-0.139c-0.043-0.041-0.109-0.061-0.207-0.061c-0.066,0-0.135,0.004-0.184,0.012l-0.01,0.724h0.096
					l0.004-0.314h0.09c0.086,0.004,0.123,0.041,0.146,0.143c0.018,0.094,0.033,0.155,0.045,0.175l0.1,0.004
					C13.068,8.653,13.053,8.579,13.031,8.477z M12.803,8.289l-0.098-0.004l0.004-0.266c0.016-0.004,0.049-0.008,0.094-0.008
					c0.098,0,0.166,0.045,0.166,0.14C12.969,8.232,12.904,8.289,12.803,8.289z"/>
			</g>
			<g>
				<path fill="#43AF50" d="M13.715,8.06c-0.063-0.062-0.156-0.098-0.291-0.106c-0.076-0.004-0.146,0-0.203,0.004l-0.037,0.724
					c0.047,0.008,0.105,0.012,0.17,0.016c0.145,0.008,0.258-0.024,0.332-0.09c0.068-0.061,0.115-0.16,0.119-0.278
					C13.813,8.211,13.775,8.125,13.715,8.06z M13.379,8.625c-0.037-0.004-0.074-0.008-0.098-0.012l0.027-0.577
					c0.029-0.004,0.066-0.008,0.115-0.004c0.201,0.008,0.291,0.123,0.283,0.294C13.699,8.526,13.58,8.632,13.379,8.625z"/>
			</g>
			<g>
				<path fill="#43AF50" d="M14.357,8.109l0.008-0.078l-0.396-0.037l-0.066,0.728l0.408,0.041l0.008-0.082L14,8.653l0.025-0.262
					l0.285,0.025l0.004-0.078l-0.281-0.024l0.02-0.233L14.357,8.109z"/>
			</g>
			<g>
				<path fill="#43AF50" d="M15.088,8.125l-0.18,0.331c-0.045,0.09-0.082,0.164-0.111,0.233h-0.004
					c-0.008-0.078-0.02-0.16-0.037-0.253l-0.072-0.369l-0.123-0.016l-0.15,0.715l0.088,0.017l0.063-0.311
					c0.023-0.106,0.045-0.228,0.061-0.318c0.008,0.09,0.025,0.188,0.045,0.294l0.07,0.364l0.068,0.008l0.182-0.335
					c0.049-0.094,0.094-0.18,0.131-0.262h0.004c-0.018,0.09-0.025,0.213-0.037,0.315l-0.025,0.323l0.09,0.012l0.057-0.731
					L15.088,8.125z"/>
			</g>
			<g>
				<path fill="#43AF50" d="M16.364,8.735l-0.082-0.021c-0.037,0.085-0.078,0.147-0.123,0.188c-0.031-0.061-0.082-0.155-0.123-0.236
					V8.661c0.127-0.029,0.186-0.078,0.205-0.151c0.021-0.094-0.033-0.172-0.121-0.192c-0.119-0.028-0.201,0.045-0.223,0.131
					c-0.016,0.054-0.002,0.111,0.021,0.164v0.004c-0.094,0.024-0.169,0.077-0.194,0.176c-0.023,0.106,0.033,0.217,0.173,0.253
					c0.078,0.017,0.152,0.008,0.23-0.033c0.02,0.037,0.031,0.062,0.047,0.086l0.111,0.029c-0.031-0.058-0.061-0.107-0.09-0.156
					C16.267,8.923,16.319,8.841,16.364,8.735z M15.983,8.461c0.014-0.053,0.053-0.094,0.115-0.083
					c0.057,0.017,0.068,0.07,0.057,0.115c-0.012,0.057-0.068,0.085-0.15,0.11C15.983,8.559,15.972,8.514,15.983,8.461z
					 M15.931,8.976c-0.086-0.021-0.132-0.098-0.111-0.176c0.018-0.077,0.082-0.11,0.127-0.123c0.059,0.11,0.115,0.217,0.148,0.27
					C16.05,8.98,15.993,8.992,15.931,8.976z"/>
			</g>
			<g>
				<path fill="#43AF50" d="M17.374,8.763c-0.029-0.049-0.086-0.09-0.176-0.123c-0.074-0.024-0.131-0.036-0.176-0.044l-0.23,0.687
					l0.092,0.033l0.09-0.278c0.02,0.012,0.045,0.021,0.072,0.029c0.086,0.028,0.172,0.028,0.238-0.004
					c0.045-0.025,0.082-0.07,0.102-0.131C17.407,8.87,17.403,8.813,17.374,8.763z M17.296,8.906C17.265,9,17.177,9.033,17.071,8.997
					c-0.029-0.013-0.053-0.021-0.074-0.033l0.094-0.27c0.018,0,0.047,0.008,0.086,0.021C17.276,8.747,17.325,8.813,17.296,8.906z"/>
			</g>
			<g>
				<path fill="#43AF50" d="M17.94,8.972c-0.027-0.053-0.08-0.094-0.174-0.131C17.704,8.82,17.64,8.8,17.591,8.792L17.333,9.47
					l0.09,0.033l0.111-0.299l0.084,0.033c0.078,0.033,0.104,0.082,0.086,0.184c-0.012,0.094-0.02,0.16-0.016,0.18l0.094,0.037
					C17.778,9.605,17.788,9.536,17.8,9.43c0.01-0.078,0-0.139-0.051-0.176l0.004-0.004c0.078,0.004,0.16-0.038,0.191-0.127
					C17.966,9.07,17.966,9.017,17.94,8.972z M17.856,9.103c-0.033,0.078-0.111,0.106-0.205,0.069l-0.09-0.033l0.094-0.253
					c0.018,0.004,0.049,0.012,0.09,0.029C17.839,8.947,17.89,9.012,17.856,9.103z"/>
			</g>
			<g>
				<path fill="#43AF50" d="M18.448,9.115c-0.18-0.078-0.371,0-0.469,0.213c-0.09,0.204-0.025,0.396,0.15,0.474
					c0.168,0.078,0.363,0.017,0.465-0.213C18.687,9.389,18.634,9.197,18.448,9.115z M18.507,9.552
					c-0.07,0.151-0.205,0.241-0.34,0.18c-0.139-0.061-0.16-0.221-0.096-0.364c0.066-0.147,0.197-0.25,0.342-0.184
					C18.556,9.25,18.563,9.417,18.507,9.552z"/>
			</g>
			<g>
				<path fill="#43AF50" d="M19.208,9.503c-0.215-0.119-0.424-0.053-0.529,0.139c-0.055,0.098-0.07,0.204-0.041,0.286
					c0.029,0.099,0.094,0.164,0.191,0.221c0.086,0.045,0.172,0.065,0.217,0.07l0.17-0.307l-0.211-0.119l-0.037,0.07l0.131,0.07
					l-0.105,0.192c-0.025,0-0.066-0.013-0.119-0.041c-0.152-0.086-0.195-0.234-0.105-0.397c0.09-0.164,0.244-0.205,0.4-0.118
					c0.064,0.037,0.102,0.073,0.125,0.106l0.059-0.057C19.333,9.588,19.282,9.544,19.208,9.503z"/>
			</g>
			<g>
				<path fill="#43AF50" d="M19.815,10.116c0.031-0.045,0.043-0.098,0.031-0.147c-0.016-0.057-0.061-0.11-0.146-0.167
					c-0.055-0.032-0.113-0.069-0.16-0.086l-0.396,0.605l0.078,0.049l0.176-0.262l0.072,0.049c0.07,0.049,0.082,0.102,0.045,0.2
					c-0.031,0.086-0.055,0.147-0.055,0.172l0.08,0.053c0.004-0.033,0.029-0.102,0.066-0.2c0.023-0.073,0.027-0.135-0.01-0.18v-0.004
					C19.675,10.219,19.761,10.198,19.815,10.116z M19.515,10.1l-0.08-0.053l0.146-0.224c0.016,0.004,0.045,0.02,0.086,0.045
					c0.082,0.057,0.115,0.13,0.064,0.208C19.685,10.145,19.601,10.157,19.515,10.1z"/>
			</g>
			<g>
				<path fill="#43AF50" d="M20.325,10.361l0.049-0.065l-0.314-0.237l-0.441,0.581l0.326,0.249l0.045-0.061l-0.248-0.192
					l0.158-0.213l0.225,0.176l0.049-0.065l-0.229-0.172l0.145-0.184L20.325,10.361z"/>
			</g>
			<g>
				<path fill="#43AF50" d="M20.681,10.533c-0.111-0.09-0.236-0.086-0.311,0c-0.064,0.078-0.053,0.176,0.012,0.282
					c0.053,0.094,0.059,0.151,0.012,0.204c-0.047,0.053-0.121,0.057-0.199-0.004c-0.049-0.045-0.082-0.102-0.098-0.147l-0.07,0.045
					c0.012,0.044,0.063,0.11,0.115,0.155c0.131,0.115,0.258,0.094,0.332,0.004c0.068-0.082,0.061-0.167-0.006-0.282
					c-0.049-0.099-0.061-0.151-0.02-0.205c0.031-0.037,0.102-0.057,0.18,0.004c0.049,0.045,0.072,0.094,0.082,0.119l0.068-0.041
					C20.767,10.631,20.737,10.582,20.681,10.533z"/>
			</g>
			<g>
				<path fill="#43AF50" d="M21.099,10.905c-0.107-0.094-0.234-0.098-0.313-0.012c-0.068,0.078-0.057,0.171,0.004,0.282
					c0.047,0.098,0.051,0.151,0.006,0.204c-0.055,0.053-0.127,0.053-0.201-0.012c-0.049-0.045-0.078-0.103-0.09-0.151l-0.074,0.041
					c0.014,0.049,0.053,0.115,0.107,0.164c0.127,0.114,0.258,0.102,0.33,0.016c0.074-0.078,0.07-0.164,0.008-0.286
					c-0.047-0.094-0.057-0.151-0.012-0.2c0.033-0.037,0.104-0.057,0.176,0.012c0.049,0.045,0.07,0.094,0.082,0.119l0.07-0.037
					C21.179,11.007,21.151,10.958,21.099,10.905z"/>
			</g>
			<g>
				<path fill="#43AF50" d="M21.556,11.343c-0.139-0.135-0.348-0.127-0.512,0.037c-0.154,0.159-0.162,0.364-0.023,0.499
					c0.135,0.131,0.34,0.143,0.514-0.041C21.687,11.682,21.702,11.482,21.556,11.343z M21.462,11.772
					c-0.119,0.118-0.273,0.16-0.385,0.053c-0.105-0.102-0.07-0.262,0.041-0.376s0.27-0.163,0.381-0.053
					C21.614,11.506,21.56,11.666,21.462,11.772z"/>
			</g>
		</g>
		<g>
			<circle fill="#FFFFFF" cx="19.968" cy="12.447" r="0.068"/>
		</g>
		<g>
			<circle fill="#FFFFFF" cx="19.474" cy="12.48" r="0.068"/>
		</g>
		<g>
			<circle fill="#FFFFFF" cx="19.432" cy="12.83" r="0.06"/>
		</g>
		<g>
			<circle fill="#FFFFFF" cx="19.342" cy="13.039" r="0.056"/>
		</g>
		<g>
			<circle fill="#FFFFFF" cx="19.117" cy="13.151" r="0.056"/>
		</g>
		<g>
			<circle fill="#FFFFFF" cx="18.802" cy="13.233" r="0.057"/>
		</g>
		<g>
			<circle fill="#FFFFFF" cx="19.03" cy="13.621" r="0.068"/>
		</g>
		<g>
			<circle fill="#FFFFFF" cx="19.048" cy="13.945" r="0.068"/>
		</g>
		<g>
			<circle fill="#FFFFFF" cx="17.912" cy="13.241" r="0.046"/>
		</g>
		<g>
			<circle fill="#FFFFFF" cx="17.579" cy="13.241" r="0.045"/>
		</g>
		<g>
			<circle fill="#FFFFFF" cx="17.693" cy="13.644" r="0.046"/>
		</g>
		<g>
			<circle fill="#FFFFFF" cx="16.34" cy="14.218" r="0.067"/>
		</g>
		<g>
			<circle fill="#FFFFFF" cx="16.272" cy="12.582" r="0.068"/>
		</g>
		<g>
			<circle fill="#FFFFFF" cx="16.698" cy="12.071" r="0.068"/>
		</g>
		<g>
			<circle fill="#FFFFFF" cx="16.188" cy="11.595" r="0.067"/>
		</g>
		<g>
			<circle fill="#FFFFFF" cx="15.692" cy="11.935" r="0.067"/>
		</g>
		<g>
			<circle fill="#FFFFFF" cx="15.966" cy="12.174" r="0.043"/>
		</g>
		<g>
			<circle fill="#FFFFFF" cx="17.498" cy="10.334" r="0.067"/>
		</g>
		<g>
			<circle fill="#FFFFFF" cx="18.026" cy="8.358" r="0.068"/>
		</g>
		<g>
			<circle fill="#FFFFFF" cx="14.552" cy="10.726" r="0.067"/>
		</g>
		<g>
			<circle fill="#FFFFFF" cx="13.972" cy="13.229" r="0.067"/>
		</g>
		<g>
			<circle fill="#FFFFFF" cx="13.035" cy="12.854" r="0.051"/>
		</g>
		<g>
			<circle fill="#FFFFFF" cx="13.069" cy="12.429" r="0.052"/>
		</g>
		<g>
			<circle fill="#FFFFFF" cx="12.805" cy="12.063" r="0.047"/>
		</g>
		<g>
			<circle fill="#FFFFFF" cx="12.234" cy="12.123" r="0.068"/>
		</g>
		<g>
			<circle fill="#FFFFFF" cx="11.732" cy="12.369" r="0.039"/>
		</g>
		<g>
			<circle fill="#FFFFFF" cx="11.757" cy="9.567" r="0.067"/>
		</g>
	</g>
</g>
<g id="Capa_19">
</g>
</svg>
